<?xml version="1.0" encoding="utf-8"?>
<!-- Generator: Adobe Illustrator 24.0.1, SVG Export Plug-In . SVG Version: 6.00 Build 0)  -->
<svg version="1.1" id="Layer_1" xmlns="http://www.w3.org/2000/svg" xmlns:xlink="http://www.w3.org/1999/xlink" x="0px" y="0px"
	 viewBox="0 0 146 35" style="enable-background:new 0 0 146 35;" xml:space="preserve">
<style type="text/css">
	.st0{fill:#A3CD3A;}
	.st1{fill:#202321;}
</style>
<g>
	<g>
		<path class="st0" d="M11.3,27.3c-0.8,0-1.4-0.7-1.4-1.4V13.2c0-3.1,2.7-5.7,5.8-5.7h8c0.8,0,1.4,0.7,1.4,1.4
			c0,0.8-0.7,1.4-1.4,1.4h-8c-1.7,0-3,1.2-3,2.8v12.7C12.7,26.7,12,27.3,11.3,27.3"/>
		<path class="st0" d="M20,18.4h-5.2c-0.8,0-1.4-0.7-1.4-1.4v-2.8c0-1.8,1.4-3.1,3.1-3.1h7.3c0.8,0,1.4,0.7,1.4,1.4
			s-0.7,1.4-1.4,1.4h-7.3c-0.2,0-0.3,0.1-0.3,0.2v1.3H20c0.8,0,1.4,0.7,1.4,1.4C21.4,17.8,20.8,18.4,20,18.4"/>
		<path class="st0" d="M14.9,27.3c-0.8,0-1.4-0.7-1.4-1.4v-5.4c0-0.7,0.7-1.4,1.4-1.4H20c0.8,0,1.4,0.7,1.4,1.4s-0.7,1.4-1.4,1.4
			h-3.8v4C16.2,26.7,15.6,27.3,14.9,27.3"/>
		<path class="st0" d="M28.4,35H6.6C2.9,35,0,32,0,28.4V6.6C0,3,2.9,0,6.6,0h21.8C32,0,35,3,35,6.6v21.8C35,32,32,35,28.4,35
			 M6.6,2.3c-2.3,0-4.3,1.9-4.3,4.2v21.8c0,2.3,1.9,4.2,4.3,4.2h21.8c2.3,0,4.3-1.9,4.3-4.2V6.6c0-2.3-1.9-4.2-4.3-4.2
			C28.4,2.3,6.6,2.3,6.6,2.3z"/>
		<path class="st0" d="M26.9,6.8c-0.1,0-0.2,0-0.2-0.1l-0.1-0.2c-0.1-0.3-0.2-0.3-0.3-0.3s-0.2,0-0.3,0v0.7l0,0
			c-0.1,0-0.2-0.1-0.2-0.2V5.4c0.1,0,0.3-0.1,0.3-0.1h0.2c0.3,0,0.5,0.2,0.5,0.4S26.6,6,26.5,6.1c0.2,0.1,0.2,0.2,0.3,0.2L27,6.5
			v0.3l0,0H26.9 M26.4,5.5L26.4,5.5c-0.2,0-0.2,0-0.3,0V6c0.1,0,0.2,0,0.3,0c0.2,0,0.3-0.1,0.3-0.3C26.7,5.6,26.5,5.5,26.4,5.5"/>
		<path class="st0" d="M26.4,7.7L26.4,7.7c-0.4,0-0.8-0.2-1.2-0.5C25,6.8,24.9,6.3,25,5.9V5.8c0.2-0.8,0.9-1.3,1.7-1.2
			c0.3,0.1,0.7,0.3,0.9,0.6c0.3,0.3,0.3,0.8,0.3,1.2C27.7,7.2,27.1,7.7,26.4,7.7 M26.4,4.8c-0.6,0-1.2,0.4-1.3,1.1V6
			c-0.1,0.3,0,0.8,0.3,1.1c0.3,0.2,0.6,0.4,1,0.4l0,0c0.6,0,1.2-0.4,1.3-1.1c0.1-0.3,0-0.8-0.3-1c-0.2-0.2-0.5-0.4-0.8-0.5
			C26.6,4.8,26.5,4.8,26.4,4.8"/>
	</g>
	<g>
		<path class="st1" d="M50.7,13.9v4.3h2.9c0.7,0,1.2,0.2,1.5,0.4c0.3,0.2,0.4,0.6,0.4,1.1c0,0.4-0.2,0.7-0.4,1
			c-0.3,0.2-0.8,0.4-1.5,0.4h-6.3c-0.7,0-1.2-0.2-1.5-0.4c-0.3-0.2-0.4-0.6-0.4-1.1c0-0.4,0.2-0.8,0.4-1c0.3-0.2,0.8-0.4,1.5-0.4
			h0.4V6.8h-0.4c-0.7,0-1.2-0.2-1.5-0.4c-0.3-0.2-0.4-0.6-0.4-1.1c0-0.4,0.2-0.8,0.4-1.1c0.3-0.3,0.8-0.4,1.5-0.4H61v4.5
			c0,0.7-0.2,1.2-0.4,1.5c-0.3,0.3-0.6,0.4-1.1,0.4c-0.4,0-0.8-0.2-1-0.4c-0.3-0.3-0.4-0.8-0.4-1.5V6.8h-7.3V11h2.5
			c0-0.8,0.1-1.2,0.3-1.4c0.3-0.5,0.7-0.7,1.3-0.7c0.4,0,0.8,0.2,1,0.4c0.3,0.3,0.4,0.8,0.4,1.5v3.3c0,0.7-0.2,1.2-0.4,1.5
			S55.3,16,54.8,16s-0.9-0.2-1.3-0.7c-0.2-0.2-0.3-0.7-0.3-1.5L50.7,13.9L50.7,13.9z"/>
		<path class="st1" d="M82.9,6.8v11.3h2.9c0.7,0,1.2,0.2,1.5,0.4c0.3,0.2,0.4,0.6,0.4,1.1c0,0.4-0.2,0.7-0.4,1
			C87,20.8,86.6,21,85.8,21h-8.7c-0.7,0-1.2-0.2-1.5-0.4c-0.3-0.2-0.4-0.6-0.4-1.1c0-0.4,0.2-0.8,0.4-1c0.3-0.2,0.8-0.4,1.5-0.4H80
			V6.8h-2.9c-0.7,0-1.2-0.2-1.5-0.4c-0.3-0.2-0.4-0.6-0.4-1.1s0.2-0.8,0.4-1.1C76,4,76.4,3.8,77.2,3.8h8.7c0.7,0,1.2,0.2,1.5,0.4
			s0.4,0.6,0.4,1S87.6,6,87.4,6.3c-0.3,0.2-0.8,0.4-1.5,0.4L82.9,6.8L82.9,6.8z"/>
		<path class="st1" d="M109.1,6.8v11.3h6.2v-2.7c0-0.7,0.2-1.2,0.4-1.5c0.3-0.3,0.6-0.4,1.1-0.4c0.4,0,0.8,0.2,1,0.4
			c0.3,0.3,0.4,0.8,0.4,1.5V21h-13.7c-0.7,0-1.2-0.2-1.5-0.4s-0.4-0.6-0.4-1.1c0-0.4,0.2-0.8,0.4-1c0.3-0.2,0.8-0.4,1.5-0.4h1.7V6.8
			h-1.7c-0.7,0-1.2-0.2-1.5-0.4c-0.3-0.2-0.4-0.6-0.4-1.1s0.2-0.8,0.4-1.1c0.3-0.3,0.8-0.4,1.5-0.4h6.3c0.7,0,1.2,0.2,1.5,0.4
			c0.3,0.2,0.4,0.6,0.4,1s-0.2,0.8-0.4,1.1c-0.3,0.3-0.8,0.4-1.5,0.4L109.1,6.8L109.1,6.8z"/>
		<path class="st1" d="M134.9,20.2c-0.3,0.3-0.4,0.5-0.6,0.6S134,21,133.7,21c-0.4,0-0.8-0.2-1.1-0.4c-0.3-0.3-0.4-0.8-0.4-1.5v-1.9
			c0-0.7,0.2-1.2,0.4-1.5s0.6-0.4,1.1-0.4c0.3,0,0.6,0.1,0.8,0.2c0.3,0.2,0.4,0.5,0.5,0.9c0.1,0.4,0.3,0.7,0.4,0.8
			c0.3,0.2,0.8,0.6,1.4,0.9c0.7,0.3,1.4,0.4,2.3,0.4c1.3,0,2.3-0.3,3.2-0.9c0.5-0.3,0.8-0.8,0.8-1.3c0-0.3-0.2-0.7-0.4-1
			c-0.3-0.3-0.7-0.6-1.3-0.8c-0.3-0.2-1.3-0.3-2.5-0.6c-1.6-0.2-2.8-0.7-3.6-1.1c-0.8-0.4-1.4-1-1.9-1.8s-0.7-1.6-0.7-2.4
			c0-1.4,0.6-2.6,1.8-3.6s2.7-1.6,4.5-1.6c0.8,0,1.4,0.1,2.1,0.3c0.7,0.2,1.2,0.4,1.8,0.8c0.3-0.3,0.8-0.6,1.1-0.6
			c0.4,0,0.8,0.2,1,0.4c0.3,0.3,0.4,0.8,0.4,1.5V8c0,0.7-0.2,1.2-0.4,1.5c-0.3,0.3-0.6,0.4-1,0.4c-0.3,0-0.7-0.1-0.9-0.3
			s-0.3-0.5-0.5-0.9c-0.1-0.5-0.3-0.8-0.4-1c-0.3-0.3-0.7-0.7-1.3-0.9c-0.6-0.2-1.2-0.3-1.9-0.3c-1,0-1.8,0.2-2.5,0.8
			c-0.6,0.5-0.9,1-0.9,1.5c0,0.3,0.1,0.7,0.3,1c0.3,0.3,0.6,0.6,1.1,0.8c0.3,0.2,1.3,0.3,2.7,0.7c1.5,0.2,2.6,0.6,3.4,0.9
			c0.8,0.3,1.4,0.9,2,1.7c0.5,0.8,0.8,1.6,0.8,2.7c0,1.4-0.5,2.6-1.5,3.4c-1.3,1.2-3,1.7-5.1,1.7c-0.8,0-1.6-0.1-2.3-0.2
			C136.3,20.9,135.6,20.7,134.9,20.2"/>
		<path class="st0" d="M49.5,31.2c-0.3,0.1-0.9,0.2-1.5,0.2c-0.8,0-1.4-0.2-1.8-0.6c-0.4-0.4-0.7-1-0.7-1.7c0-1.5,1.1-2.3,2.6-2.3
			c0.6,0,1,0.1,1.3,0.2l-0.3,1c-0.3-0.1-0.6-0.2-1.1-0.2c-0.8,0-1.5,0.5-1.5,1.4s0.6,1.5,1.4,1.5c0.3,0,0.4,0,0.5-0.1v-0.9h-0.7
			v-0.8h1.7L49.5,31.2L49.5,31.2z"/>
		<polygon class="st0" points="55.6,29.5 53.9,29.5 53.9,30.6 55.7,30.6 55.7,31.4 52.9,31.4 52.9,26.9 55.6,26.9 55.6,27.8 
			53.9,27.8 53.9,28.7 55.6,28.7 		"/>
		<polygon class="st0" points="60.1,27.8 58.8,27.8 58.8,26.9 62.2,26.9 62.2,27.8 61.1,27.8 61.1,31.4 60.1,31.4 		"/>
		<polygon class="st0" points="70.1,27.8 68.9,27.8 68.9,26.9 72.3,26.9 72.3,27.8 71.2,27.8 71.2,31.4 70.1,31.4 		"/>
		<polygon class="st0" points="76.6,26.9 76.6,28.7 78.3,28.7 78.3,26.9 79.3,26.9 79.3,31.4 78.3,31.4 78.3,29.6 76.6,29.6 
			76.6,31.4 75.6,31.4 75.6,26.9 		"/>
		<polygon class="st0" points="85.5,29.5 83.8,29.5 83.8,30.6 85.7,30.6 85.7,31.4 82.8,31.4 82.8,26.9 85.6,26.9 85.6,27.8 
			83.8,27.8 83.8,28.7 85.5,28.7 		"/>
		<path class="st0" d="M93.1,27c0.3-0.1,0.8-0.1,1.3-0.1c0.6,0,1,0.1,1.3,0.2c0.3,0.2,0.5,0.5,0.5,0.9s-0.2,0.8-0.7,1l0,0
			c0.5,0.2,0.9,0.5,0.9,1.1c0,0.4-0.2,0.8-0.5,0.9c-0.3,0.2-0.8,0.4-1.8,0.4c-0.5,0-0.8,0-1.1-0.1C93.1,31.3,93.1,27,93.1,27z
			 M94.1,28.8h0.3c0.5,0,0.8-0.2,0.8-0.6s-0.3-0.5-0.8-0.5c-0.3,0-0.3,0-0.4,0L94.1,28.8L94.1,28.8z M94.1,30.7c0.1,0,0.3,0,0.4,0
			c0.5,0,0.8-0.2,0.8-0.7c0-0.4-0.4-0.7-0.9-0.7h-0.3V30.7z"/>
		<polygon class="st0" points="102.5,29.5 100.8,29.5 100.8,30.6 102.6,30.6 102.6,31.4 99.8,31.4 99.8,26.9 102.5,26.9 102.5,27.8 
			100.8,27.8 100.8,28.7 102.5,28.7 		"/>
		<path class="st0" d="M106,30.4c0.3,0.2,0.7,0.2,1.2,0.2s0.8-0.2,0.8-0.5c0-0.2-0.3-0.4-0.8-0.7c-0.8-0.2-1.3-0.7-1.3-1.3
			c0-0.8,0.7-1.3,1.7-1.3c0.5,0,0.9,0.1,1.2,0.2l-0.3,0.8c-0.2-0.1-0.5-0.2-0.9-0.2s-0.7,0.2-0.7,0.4c0,0.2,0.3,0.4,0.8,0.7
			c0.8,0.3,1.2,0.8,1.2,1.3c0,0.8-0.6,1.4-1.8,1.4c-0.5,0-1-0.2-1.3-0.2L106,30.4z"/>
		<polygon class="st0" points="113.1,27.8 112,27.8 112,26.9 115.4,26.9 115.4,27.8 114.1,27.8 114.1,31.4 113.1,31.4 		"/>
		<path class="st0" d="M122.6,27c0.3-0.1,0.8-0.1,1.3-0.1c0.8,0,1.4,0.2,1.8,0.5c0.5,0.3,0.8,0.9,0.8,1.7c0,0.8-0.3,1.5-0.8,1.8
			c-0.5,0.4-1.2,0.6-2.1,0.6c-0.5,0-0.9,0-1.2-0.1L122.6,27L122.6,27z M123.6,30.7c0.1,0,0.3,0,0.3,0c0.9,0,1.5-0.5,1.5-1.6
			c0-0.9-0.6-1.4-1.4-1.4c-0.3,0-0.3,0-0.5,0L123.6,30.7L123.6,30.7z"/>
		<polygon class="st0" points="132.6,29.5 130.9,29.5 130.9,30.6 132.8,30.6 132.8,31.4 129.9,31.4 129.9,26.9 132.7,26.9 
			132.7,27.8 130.9,27.8 130.9,28.7 132.6,28.7 		"/>
		<path class="st0" d="M137.2,30.2l-0.3,1.2h-1.1l1.3-4.5h1.3l1.4,4.5h-1.1l-0.3-1.2H137.2z M138.3,29.5l-0.3-0.9
			c-0.1-0.2-0.2-0.6-0.3-0.8l0,0c-0.1,0.2-0.2,0.6-0.2,0.8l-0.3,0.9H138.3z"/>
		<polygon class="st0" points="143.2,26.9 144.2,26.9 144.2,30.6 146,30.6 146,31.4 143.2,31.4 		"/>
	</g>
</g>
</svg>
